<?xml version="1.0" encoding="utf-8"?>
<!-- Generator: Adobe Illustrator 19.0.0, SVG Export Plug-In . SVG Version: 6.00 Build 0)  -->
<svg version="1.1" id="Слой_1" xmlns="http://www.w3.org/2000/svg" xmlns:xlink="http://www.w3.org/1999/xlink" x="0px" y="0px"
	 viewBox="0 0 1000 1000" style="enable-background:new 0 0 1000 1000;" xml:space="preserve">
<style type="text/css">
	.st0{fill:#6666FF;}
	.st1{fill:#66FFA4;stroke:#66FFA4;stroke-width:7;stroke-miterlimit:10;}
	.st2{fill:#F2F2F2;stroke:#F2F2F2;stroke-width:6;stroke-miterlimit:10;}
	.st3{fill:#66FFA4;}
	.st4{fill:none;stroke:#66FFA4;stroke-width:7;stroke-miterlimit:10;}
	.st5{fill:#FFFFFF;}
</style>
<circle id="XMLID_1_" class="st0" cx="1220.3" cy="274.3" r="112.7"/>
<path id="XMLID_27_" class="st0" d="M1113,243L1113,243C1113,243,1113,243,1113,243L1113,243z M1108.3,290.4c0-0.3-0.1-0.5-0.2-0.8
	c0.2,1.7,0.5,3.5,0.7,5.1c-0.2-1.3-0.3-2.8-0.4-4.1C1108.4,290.6,1108.3,290.5,1108.3,290.4z"/>
<path id="XMLID_17_" class="st0" d="M1273,298.1l6.8-7.1l2-9.4l1.8-2.5h2.4v7.4l5.6,4.6l-2.3,10.5l-8.4,3.1l-7.8-2.6V298.1z
	 M1294.8,310.7l-19.7,7.3l-16.8-0.9l-15.2-11.2h12.3l8.9,5h5.7v5.5l0.5-0.1l24.8-5.8L1294.8,310.7z"/>
<text id="XMLID_2_" transform="matrix(1 0 0 1 1370.0105 317.0398)" style="font-family:'ProximaNova-Black'; font-size:124.3437px;">Geo</text>
<path id="XMLID_21_" class="st1" d="M1332.9,281.2c0,0.5,0,1-0.1,1.4c0,0,0,0,0,0.1c-0.4,4.9-2.1,20.4-8,36.8
	c-4.9,12-11.7,23-20.2,32.5l-10.6-14.5c0,0,11.5-17.3,14.5-26.7V298l17.3-6.9L1332.9,281.2z"/>
<path id="XMLID_20_" class="st1" d="M1153.5,365.9v3.5c0,0,1,0,1,0c0,0,0.5,0,0.4,0c-24.2-17.1-41.1-43.4-46.1-73.9
	c0-0.1,0.1,0.8,0.1,0.8c-0.7-5.3-1.4-15.7-1.4-15.7l1-0.7l6.2-0.4l2.5,9.2l2.3,6.4l2.3,4.4l1.9,8.4l6,8.8l6.2,6.7l5.1-1.9l2.2-2.1
	l-0.6,6.1v6.3l0.9,6.4l-1.2,4.5l0.5,8.2l6.4,6.1l1.8,6.3L1153.5,365.9z"/>
<polygon id="XMLID_4_" class="st2" points="1194,386 1220.3,389 1273,375.9 1282.3,370.4 1281.2,354 1260.5,371.4 1238.2,366.2 
	1215.2,374 1194,374 1183.9,384.2 "/>
<polygon id="XMLID_5_" class="st1" points="1159.7,298.8 1172.4,296.7 1182.2,299.6 1187.5,310.9 1185.1,321.8 1182.2,327.6 
	1187.5,331.2 1192.1,342.2 1193.3,349.5 1199,349.5 1209.5,342.4 1209.5,337.5 1212.9,330.1 1221.1,322.9 1219.3,309.7 1233,291.1 
	1221,289.2 1209.5,266.9 1194.6,263.2 1182.5,257.8 1182.5,253.4 1164.9,256.7 1149.5,272.9 1149.5,287.9 "/>
<g id="XMLID_6_">
	<path id="XMLID_28_" class="st3" d="M1302.7,200.3c-2.9,1.7-5.9,3.3-8.8,5c1.9,1.9,3.8,3.8,5.7,5.7c-4.2,5.6-8.5,11.2-12.9,16.8
		c-3.9-0.3-7.7-0.6-11.6-0.9c-4.9-0.8-9.7-1.7-14.6-2.6c-3.3,0.8-6.5,1.5-9.8,2.2c0-0.2,0-0.4,0-0.6c-1.2,0.1-2.3,0.1-3.5,0.2
		c0.1,6.3,0.3,12.6,0.4,18.9c-2.9,0.6-5.9,1.1-8.8,1.6c-2.3,3.3-4.7,6.7-7,10c-1.6,0-3.2,0.1-4.9,0.1c-0.7-4.2-1.4-8.5-2.1-12.7
		c-7.2-1.1-14.4-2.4-21.5-3.7c-2.6-1.5-5.2-3.1-7.7-4.7c2.5,3,5,6,7.6,9c2.4,0.1,4.8,0.1,7.2,0.1c-2.4,1.6-4.9,3.1-7.3,4.6
		c-3.9,1.5-7.9,3-11.8,4.4c-4.2-5.3-8.2-10.6-12.2-15.9c1.9-2.6,3.8-5.2,5.7-7.8c-3.7-0.4-7.3-0.8-11-1.2c0.1-0.9,0.1-1.9,0.2-2.8
		c2.1-0.3,4.3-0.6,6.4-0.9c3.3-0.5,6.7-1,10-1.5c-2.3-1.3-4.6-2.6-6.9-3.9c-2.9,0-5.9-0.1-8.8-0.2c-1.7,3-3.3,6.1-5,9.1
		c-2.2-0.6-4.3-1.3-6.5-2c-2.8-3-5.5-6-8.2-9c-5.9,3-12,6-18.1,8.8c-1.7-2.2-3.3-4.5-4.9-6.7c2.5-0.4,4.9-0.9,7.4-1.4
		c1-2.3,1.9-4.5,2.9-6.8c5.5-3.2,10.9-6.5,16.2-9.8c-1.6-1.5-3.2-3-4.8-4.6c5.4-1.3,10.7-2.7,15.9-4.2c-3.7,4.6-7.4,9.2-11.3,13.8
		c-2.2-3.2-4.3-6.4-6.4-9.6c6.3-4.2,12.5-8.5,18.6-12.9c5.9,1.7,11.8,3.4,17.8,4.9c5.4-0.1,10.7-0.2,16.1-0.4
		c4.5,0,8.9-0.1,13.4-0.2c1.6-2.3,3.1-4.5,4.6-6.8c5.8,0,11.6-0.1,17.4-0.3c6.2-2.4,12.4-4.9,18.4-7.5c2.3,0.9,4.5,1.7,6.8,2.5
		c-2,2.7-4,5.3-6.1,7.9c9.2-0.5,18.4-1.1,27.6-2"/>
	<path id="XMLID_26_" class="st4" d="M1302.7,200.3c-2.9,1.7-5.9,3.3-8.8,5c1.9,1.9,3.8,3.8,5.7,5.7c-4.2,5.6-8.5,11.2-12.9,16.8
		c-3.9-0.3-7.7-0.6-11.6-0.9c-4.9-0.8-9.7-1.7-14.6-2.6c-3.3,0.8-6.5,1.5-9.8,2.2c0-0.2,0-0.4,0-0.6c-1.2,0.1-2.3,0.1-3.5,0.2
		c0.1,6.3,0.3,12.6,0.4,18.9c-2.9,0.6-5.9,1.1-8.8,1.6c-2.3,3.3-4.7,6.7-7,10c-1.6,0-3.2,0.1-4.9,0.1c-0.7-4.2-1.4-8.5-2.1-12.7
		c-7.2-1.1-14.4-2.4-21.5-3.7c-2.6-1.5-5.2-3.1-7.7-4.7c2.5,3,5,6,7.6,9c2.4,0.1,4.8,0.1,7.2,0.1c-2.4,1.6-4.9,3.1-7.3,4.6
		c-3.9,1.5-7.9,3-11.8,4.4c-4.2-5.3-8.2-10.6-12.2-15.9c1.9-2.6,3.8-5.2,5.7-7.8c-3.7-0.4-7.3-0.8-11-1.2c0.1-0.9,0.1-1.9,0.2-2.8
		c2.1-0.3,4.3-0.6,6.4-0.9c3.3-0.5,6.7-1,10-1.5c-2.3-1.3-4.6-2.6-6.9-3.9c-2.9,0-5.9-0.1-8.8-0.2c-1.7,3-3.3,6.1-5,9.1
		c-2.2-0.6-4.3-1.3-6.5-2c-2.8-3-5.5-6-8.2-9c-5.9,3-12,6-18.1,8.8c-1.7-2.2-3.3-4.5-4.9-6.7c2.5-0.4,4.9-0.9,7.4-1.4
		c1-2.3,1.9-4.5,2.9-6.8c5.5-3.2,10.9-6.5,16.2-9.8c-1.6-1.5-3.2-3-4.8-4.6c5.4-1.3,10.7-2.7,15.9-4.2c-3.7,4.6-7.4,9.2-11.3,13.8
		c-2.2-3.2-4.3-6.4-6.4-9.6c6.3-4.2,12.5-8.5,18.6-12.9c5.9,1.7,11.8,3.4,17.8,4.9c5.4-0.1,10.7-0.2,16.1-0.4
		c4.5,0,8.9-0.1,13.4-0.2c1.6-2.3,3.1-4.5,4.6-6.8c5.8,0,11.6-0.1,17.4-0.3c6.2-2.4,12.4-4.9,18.4-7.5c2.3,0.9,4.5,1.7,6.8,2.5
		c-2,2.7-4,5.3-6.1,7.9c9.2-0.5,18.4-1.1,27.6-2"/>
</g>
<g id="XMLID_8_">
	<path id="XMLID_25_" class="st3" d="M1312.4,211.3c-1.7-1.3-3-2.8-4-4.5"/>
	<path id="XMLID_24_" class="st4" d="M1312.4,211.3c-1.7-1.3-3-2.8-4-4.5"/>
</g>
<polyline id="XMLID_7_" class="st1" points="1254.3,180 1268,171.8 1299.6,190.9 1309.3,206.6 1317.3,223 1302.2,229.5 
	1287.2,224.1 "/>
<line id="XMLID_10_" class="st1" x1="1167.8" y1="227" x2="1180.7" y2="233.5"/>
<g id="XMLID_9_">
	<path id="XMLID_11_" class="st5" d="M626.1,577.8c-25,0-45.9-7.6-62.7-22.7C546.5,540,538.1,520,538.1,495c0-25,8.4-45,25.3-60.1
		c16.9-15.1,37.8-22.7,62.7-22.7c17.6,0,32.3,4,44,12c11.8,8,20.5,17.9,26.3,29.7l-40.8,20.9c-2.6-5.4-6.4-10.1-11.6-14
		c-5.2-3.9-11.2-5.9-17.9-5.9c-11.5,0-20.9,3.8-28.1,11.5c-7.2,7.7-10.8,17.2-10.8,28.5c0,11.4,3.6,20.9,10.8,28.5
		s16.6,11.5,28.1,11.5c4.5,0,9.1-0.7,13.9-2.2c4.8-1.4,8.5-3.1,11-5v-5.8h-29.7v-42.2h78v65.5C679.8,567,655.4,577.8,626.1,577.8z"
		/>
	<path id="XMLID_13_" class="st5" d="M776.5,577.8c-18.6,0-33.9-5.5-46.2-16.6c-12.2-11-18.4-25.8-18.4-44.4
		c0-17.1,5.9-31.5,17.8-43.2c11.8-11.7,26.9-17.5,45.3-17.5c17.4,0,31.8,5.9,43.2,17.6c11.4,11.8,17,27.6,17,47.6v8.9h-78.7
		c1.3,4,4.1,7.4,8.4,10.3s9.8,4.3,16.6,4.3c3.7,0,8.4-0.8,14-2.4c5.7-1.6,9.9-3.5,12.6-5.8l17.8,26.6c-5.4,4.6-12.7,8.2-21.8,10.7
		C795,576.5,785.8,577.8,776.5,577.8z M794.3,502.9c-2.2-9.3-8.6-13.9-19.2-13.9c-10.1,0-16.4,4.6-19,13.9H794.3z"/>
	<path id="XMLID_29_" class="st5" d="M954.8,560c-11.8,11.8-27.7,17.8-47.5,17.8c-19.8,0-35.6-5.9-47.4-17.8
		c-11.8-11.8-17.6-26.2-17.6-43.2c0-17,5.9-31.3,17.6-43.1c11.8-11.8,27.5-17.6,47.4-17.6c19.8,0,35.7,5.9,47.5,17.6
		c11.8,11.8,17.8,26.1,17.8,43.1C972.5,533.8,966.6,548.2,954.8,560z M907.3,539.6c6.6,0,11.7-2.1,15.4-6.4
		c3.7-4.2,5.5-9.7,5.5-16.4c0-6.6-1.8-12-5.5-16.2c-3.7-4.2-8.8-6.4-15.4-6.4c-6.4,0-11.4,2.1-15.1,6.4c-3.7,4.2-5.5,9.6-5.5,16.2
		c0,6.7,1.8,12.2,5.5,16.4C895.8,537.5,900.9,539.6,907.3,539.6z"/>
</g>
<circle id="XMLID_3_" class="st0" cx="244.7" cy="503.5" r="216.6"/>
</svg>
